<svg width="106" height="44" viewBox="0 0 106 44" fill="none" xmlns="http://www.w3.org/2000/svg">
<path fill-rule="evenodd" clip-rule="evenodd" d="M22 0C34.1503 0 44 9.84974 44 22C44 34.1503 34.1503 44 22 44C9.84974 44 0 34.1503 0 22C0 9.84974 9.84974 0 22 0ZM35.0664 21.8506C33.2619 20.8088 30.3212 22.5238 28.498 25.6816C26.675 28.8393 26.6596 32.2442 28.4639 33.2861C30.2683 34.3279 33.2091 32.6119 35.0322 29.4541C36.8554 26.2963 36.8708 22.8924 35.0664 21.8506ZM30.6553 19.3037C28.8508 18.2623 25.91 19.9771 24.0869 23.1348C22.2638 26.2926 22.2492 29.6975 24.0537 30.7393L26.3223 32.0488C26.3774 32.0806 26.4476 32.0618 26.4795 32.0068C26.5032 31.9658 26.4991 31.9149 26.4707 31.877C24.0458 28.6412 28.837 20.3498 32.8496 20.8291C32.8966 20.8346 32.9431 20.8125 32.9668 20.7715C32.9987 20.7163 32.9799 20.6453 32.9248 20.6133L30.6553 19.3037ZM20.167 13.248C18.3626 12.2063 15.4218 13.9214 13.5986 17.0791C11.7755 20.2369 11.76 23.6418 13.5645 24.6836C14.8898 25.4486 16.8281 24.7258 18.4863 23.0371C18.6539 22.8665 18.6092 22.5866 18.4023 22.4668L17.041 21.6807C16.1388 21.1598 15.8297 20.0057 16.3506 19.1035L17.1045 17.7969C17.417 17.2556 18.1091 17.0703 18.6504 17.3828L20.666 18.5459C20.8731 18.6651 21.1379 18.5641 21.2021 18.334C21.8355 16.0536 21.4921 14.0135 20.167 13.248ZM18.3789 18.0645C18.0181 17.8563 17.5571 17.9802 17.3486 18.3408L16.7822 19.3213C16.3656 20.0431 16.6132 20.9661 17.335 21.3828L22.3174 24.2598C22.6781 24.4678 23.1393 24.3439 23.3477 23.9834L23.9141 23.0029C24.3307 22.2812 24.0831 21.3581 23.3613 20.9414L18.3789 18.0645ZM15.7559 10.7012C13.9514 9.65939 11.0107 11.3746 9.1875 14.5322C7.36437 17.69 7.34897 21.0948 9.15332 22.1367L11.4229 23.4463C11.478 23.4779 11.5483 23.4594 11.5801 23.4043C11.6037 23.3634 11.5995 23.3123 11.5713 23.2744C9.14643 20.0387 13.9367 11.7477 17.9492 12.2266C17.9962 12.2322 18.0426 12.2099 18.0664 12.1689C18.0983 12.1137 18.0797 12.0427 18.0244 12.0107L15.7559 10.7012Z" fill="#0D85FD"/>
<path fill-rule="evenodd" clip-rule="evenodd" d="M93.5117 27.1592C94.0231 27.1592 94.4439 27.2467 94.7734 27.4209C95.1066 27.5913 95.3715 27.7977 95.5684 28.04C95.7653 28.2787 95.9153 28.5037 96.0176 28.7158H96.1309V27.2725H98.1592V36.1416C98.1592 36.8876 97.9819 37.5056 97.626 37.9941C97.2699 38.4828 96.7825 38.8484 96.165 39.0908C95.5478 39.3332 94.8473 39.4541 94.0635 39.4541C93.3248 39.4541 92.6895 39.3541 92.1592 39.1533C91.6291 38.9564 91.2027 38.6916 90.8809 38.3584C90.5589 38.0251 90.3359 37.6553 90.2109 37.25L92.0635 36.8008C92.1468 36.9712 92.2677 37.14 92.4268 37.3066C92.5858 37.4771 92.7995 37.6177 93.0684 37.7275C93.341 37.8411 93.684 37.8974 94.0967 37.8975C94.68 37.8975 95.1633 37.7557 95.5459 37.4717C95.9285 37.1914 96.1201 36.7289 96.1201 36.085V34.4316H96.0176C95.9115 34.6437 95.7562 34.8615 95.5518 35.085C95.3511 35.3083 95.0841 35.496 94.751 35.6475C94.4214 35.799 94.0059 35.875 93.5059 35.875C92.8356 35.875 92.2279 35.7176 91.6826 35.4033C91.141 35.0852 90.7087 34.612 90.3867 33.9834C90.0686 33.3509 89.9092 32.559 89.9092 31.6084C89.9092 30.6501 90.0685 29.8407 90.3867 29.1816C90.7087 28.5188 91.143 28.0167 91.6885 27.6758C92.2338 27.3313 92.8415 27.1592 93.5117 27.1592ZM94.0801 28.8467C93.6219 28.8467 93.2394 28.9657 92.9326 29.2041C92.6258 29.4427 92.3946 29.7708 92.2393 30.1875C92.084 30.6004 92.0059 31.0702 92.0059 31.5967C92.0059 32.1307 92.084 32.5985 92.2393 33C92.3983 33.3977 92.6317 33.7082 92.9385 33.9316C93.249 34.1512 93.6294 34.2617 94.0801 34.2617C94.5155 34.2617 94.8866 34.1553 95.1934 33.9434C95.5002 33.7312 95.7335 33.426 95.8926 33.0283C96.0516 32.6306 96.1308 32.1534 96.1309 31.5967C96.1309 31.0474 96.0517 30.5662 95.8926 30.1533C95.7373 29.7405 95.506 29.4206 95.1992 29.1934C94.8962 28.9623 94.5232 28.8467 94.0801 28.8467Z" fill="#242424"/>
<path d="M56.5801 24.2041C57.4058 24.2041 58.1298 24.3488 58.751 24.6367C59.3757 24.9208 59.8657 25.3168 60.2217 25.8242C60.5777 26.328 60.7621 26.9072 60.7734 27.5625H58.7451C58.6921 27.0663 58.4682 26.6798 58.0742 26.4033C57.6841 26.1269 57.1766 25.9883 56.5518 25.9883C56.1124 25.9883 55.7353 26.0549 55.4209 26.1875C55.1065 26.3201 54.8659 26.5003 54.6992 26.7275C54.5327 26.9548 54.4471 27.2143 54.4434 27.5059C54.4434 27.7482 54.4986 27.9587 54.6084 28.1367C54.722 28.3146 54.8754 28.4659 55.0684 28.5908C55.2615 28.712 55.4761 28.8141 55.7109 28.8975C55.9457 28.9808 56.1823 29.0516 56.4209 29.1084L57.5117 29.3809C57.9511 29.4831 58.374 29.6217 58.7793 29.7959C59.1882 29.9701 59.5541 30.1891 59.876 30.4541C60.2017 30.7192 60.4591 31.0401 60.6484 31.415C60.8377 31.79 60.9326 32.2298 60.9326 32.7334C60.9325 33.415 60.7576 34.0154 60.4092 34.5342C60.0607 35.0491 59.5573 35.4525 58.8984 35.7441C58.2431 36.032 57.4494 36.1758 56.5176 36.1758C55.6123 36.1758 54.8258 36.0362 54.1592 35.7559C53.4964 35.4756 52.9775 35.0661 52.6025 34.5283C52.2314 33.9905 52.0303 33.3352 52 32.5625H54.0742C54.1045 32.9678 54.2295 33.3053 54.4492 33.5742C54.6689 33.8431 54.9554 34.0432 55.3076 34.1758C55.6636 34.3083 56.0616 34.375 56.501 34.375C56.9591 34.375 57.3605 34.3072 57.7051 34.1709C58.0536 34.0307 58.3265 33.837 58.5234 33.5908C58.7203 33.3409 58.8204 33.0491 58.8242 32.7158C58.8204 32.4129 58.7318 32.1628 58.5576 31.9658C58.3834 31.7651 58.1386 31.5984 57.8242 31.4658C57.5136 31.3295 57.15 31.2086 56.7334 31.1025L55.4092 30.7617C54.451 30.5155 53.6935 30.1416 53.1367 29.6416C52.584 29.1379 52.3077 28.4697 52.3076 27.6367C52.3076 26.9511 52.493 26.3501 52.8643 25.835C53.2392 25.3199 53.7488 24.9208 54.3926 24.6367C55.0365 24.3488 55.7657 24.2041 56.5801 24.2041Z" fill="#242424"/>
<path fill-rule="evenodd" clip-rule="evenodd" d="M76.1904 27.1592C77.0425 27.1592 77.7814 27.3467 78.4062 27.7217C79.031 28.0966 79.5137 28.623 79.8545 29.3008C80.1992 29.9788 80.3721 30.7694 80.3721 31.6709C80.372 32.5722 80.1991 33.3601 79.8545 34.0342C79.5136 34.7083 79.0312 35.2334 78.4062 35.6084C77.7814 35.9833 77.0425 36.1708 76.1904 36.1709C75.3382 36.1709 74.5986 35.9834 73.9736 35.6084C73.3487 35.2334 72.8642 34.7083 72.5195 34.0342C72.1787 33.3601 72.0079 32.5722 72.0078 31.6709C72.0078 30.7694 72.1786 29.9788 72.5195 29.3008C72.8642 28.623 73.3489 28.0966 73.9736 27.7217C74.5986 27.3467 75.3382 27.1592 76.1904 27.1592ZM76.2012 28.79C75.7278 28.7901 75.3339 28.9183 75.0195 29.1758C74.7089 29.4334 74.4756 29.7802 74.3203 30.2158C74.1688 30.6476 74.0938 31.131 74.0938 31.665C74.0938 32.1952 74.1688 32.6767 74.3203 33.1084C74.4756 33.54 74.7091 33.8841 75.0195 34.1416C75.3339 34.3954 75.7278 34.5224 76.2012 34.5225C76.6633 34.5225 77.0497 34.3954 77.3604 34.1416C77.6708 33.8841 77.9022 33.54 78.0537 33.1084C78.209 32.6767 78.2861 32.1952 78.2861 31.665C78.2861 31.1309 78.209 30.6476 78.0537 30.2158C77.9022 29.7802 77.6709 29.4333 77.3604 29.1758C77.0498 28.9183 76.6632 28.79 76.2012 28.79Z" fill="#242424"/>
<path d="M64.5566 27.2725H66.2783V28.8633H64.5566V33.375C64.5566 33.6515 64.5983 33.864 64.6816 34.0117C64.7687 34.1554 64.8826 34.2536 65.0225 34.3066C65.1626 34.3597 65.3188 34.3867 65.4893 34.3867C65.6177 34.3867 65.735 34.3773 65.8408 34.3584C65.9505 34.3395 66.034 34.3218 66.0908 34.3066L66.4375 35.915C66.3277 35.9529 66.1702 35.9946 65.9658 36.04C65.7651 36.0854 65.519 36.1116 65.2275 36.1191C64.7124 36.1343 64.2478 36.0572 63.835 35.8867C63.4222 35.7125 63.0949 35.4427 62.8525 35.0791C62.614 34.7155 62.4962 34.2611 62.5 33.7158V28.8633H61.2617V27.2725H62.5V25.1816H64.5566V27.2725Z" fill="#242424"/>
<path d="M71.4375 27.1475C71.5511 27.1475 71.6782 27.1537 71.8184 27.165C71.962 27.1726 72.0812 27.1852 72.1758 27.2041V29.0967C72.0887 29.0664 71.9508 29.0393 71.7617 29.0166C71.5762 28.9901 71.3959 28.9775 71.2217 28.9775C70.8467 28.9775 70.5092 29.0588 70.21 29.2217C69.9146 29.3808 69.6821 29.6027 69.5117 29.8867C69.3413 30.1707 69.2559 30.498 69.2559 30.8691V36H67.1992V27.2725H69.1934V28.7275H69.2842C69.4433 28.2238 69.7162 27.8352 70.1025 27.5625C70.4926 27.2861 70.9376 27.1475 71.4375 27.1475Z" fill="#242424"/>
<path d="M85.9883 27.1592C86.5904 27.1592 87.1146 27.2884 87.5615 27.5459C88.0123 27.8035 88.3612 28.1764 88.6074 28.665C88.8573 29.1536 88.9804 29.7465 88.9766 30.4434V36H86.9199V30.7617C86.9199 30.1784 86.7679 29.7211 86.4648 29.3916C86.1656 29.0623 85.7508 28.8975 85.2207 28.8975C84.861 28.8975 84.541 28.9777 84.2607 29.1367C83.9843 29.292 83.7665 29.5171 83.6074 29.8125C83.4521 30.108 83.374 30.4663 83.374 30.8867V36H81.3174V27.2725H83.2832V28.7559H83.3857C83.5865 28.2673 83.9064 27.8787 84.3457 27.5908C84.7889 27.3029 85.3368 27.1592 85.9883 27.1592Z" fill="#242424"/>
<path fill-rule="evenodd" clip-rule="evenodd" d="M75.4912 11.1592C76.1654 11.1592 76.7738 11.3311 77.3154 11.6758C77.8609 12.0167 78.2922 12.5229 78.6104 13.1934C78.9323 13.86 79.0937 14.6779 79.0938 15.6475C79.0938 16.6058 78.9364 17.4204 78.6221 18.0908C78.3077 18.7613 77.8796 19.2727 77.3379 19.625C76.7962 19.9772 76.1826 20.1533 75.4971 20.1533C74.9971 20.1533 74.5825 20.07 74.2529 19.9033C73.9234 19.7367 73.6578 19.5356 73.457 19.3008C73.2602 19.0623 73.1069 18.837 72.9971 18.625H72.9121V23.2725H70.8555V11.2725H72.8779V12.7158H72.9971C73.1031 12.5037 73.2531 12.2787 73.4463 12.04C73.6395 11.7976 73.9009 11.5914 74.2305 11.4209C74.56 11.2467 74.98 11.1592 75.4912 11.1592ZM74.9229 12.8467C74.4836 12.8467 74.1104 12.9624 73.8037 13.1934C73.497 13.4244 73.2645 13.7485 73.1055 14.165C72.9502 14.5817 72.8721 15.0724 72.8721 15.6367C72.8721 16.2008 72.9514 16.695 73.1104 17.1191C73.2732 17.5433 73.5066 17.8747 73.8096 18.1133C74.1163 18.3481 74.4874 18.4658 74.9229 18.4658C75.3774 18.4658 75.7586 18.3449 76.0654 18.1025C76.3722 17.8563 76.6035 17.5209 76.7588 17.0967C76.9178 16.6688 76.997 16.182 76.9971 15.6367C76.9971 15.0951 76.919 14.6138 76.7637 14.1934C76.6084 13.7729 76.3781 13.4427 76.0713 13.2041C75.7645 12.9655 75.3812 12.8467 74.9229 12.8467Z" fill="#242424"/>
<path d="M56.5801 8.2041C57.4058 8.20411 58.1298 8.34885 58.751 8.63672C59.3757 8.92079 59.8657 9.31679 60.2217 9.82422C60.5777 10.328 60.7621 10.9072 60.7734 11.5625H58.7451C58.6921 11.0663 58.4682 10.6798 58.0742 10.4033C57.6841 10.1269 57.1766 9.9883 56.5518 9.98828C56.1124 9.98828 55.7353 10.0549 55.4209 10.1875C55.1065 10.3201 54.8659 10.5003 54.6992 10.7275C54.5327 10.9548 54.4471 11.2143 54.4434 11.5059C54.4434 11.7482 54.4986 11.9587 54.6084 12.1367C54.722 12.3146 54.8754 12.4659 55.0684 12.5908C55.2615 12.712 55.4761 12.8141 55.7109 12.8975C55.9457 12.9808 56.1823 13.0516 56.4209 13.1084L57.5117 13.3809C57.9511 13.4831 58.374 13.6217 58.7793 13.7959C59.1882 13.9701 59.5541 14.1891 59.876 14.4541C60.2017 14.7192 60.4591 15.0401 60.6484 15.415C60.8377 15.79 60.9326 16.2298 60.9326 16.7334C60.9325 17.415 60.7576 18.0154 60.4092 18.5342C60.0607 19.0491 59.5573 19.4525 58.8984 19.7441C58.2431 20.032 57.4494 20.1758 56.5176 20.1758C55.6123 20.1758 54.8258 20.0362 54.1592 19.7559C53.4964 19.4756 52.9775 19.0661 52.6025 18.5283C52.2314 17.9905 52.0303 17.3352 52 16.5625H54.0742C54.1045 16.9678 54.2295 17.3053 54.4492 17.5742C54.6689 17.8431 54.9554 18.0432 55.3076 18.1758C55.6636 18.3083 56.0616 18.375 56.501 18.375C56.9591 18.375 57.3605 18.3072 57.7051 18.1709C58.0536 18.0307 58.3265 17.837 58.5234 17.5908C58.7203 17.3409 58.8204 17.0491 58.8242 16.7158C58.8204 16.4129 58.7318 16.1628 58.5576 15.9658C58.3834 15.7651 58.1386 15.5984 57.8242 15.4658C57.5136 15.3295 57.15 15.2086 56.7334 15.1025L55.4092 14.7617C54.451 14.5155 53.6935 14.1416 53.1367 13.6416C52.584 13.1379 52.3077 12.4697 52.3076 11.6367C52.3076 10.9511 52.493 10.3501 52.8643 9.83496C53.2392 9.31995 53.7488 8.92077 54.3926 8.63672C55.0365 8.34884 55.7657 8.2041 56.5801 8.2041Z" fill="#242424"/>
<path fill-rule="evenodd" clip-rule="evenodd" d="M83.8105 11.1592C84.3483 11.1592 84.8558 11.2467 85.333 11.4209C85.8141 11.5914 86.239 11.856 86.6064 12.2158C86.9776 12.5757 87.2693 13.0341 87.4814 13.5908C87.6936 14.1438 87.7998 14.8032 87.7998 15.5684V16.1992H81.7207C81.7268 16.6846 81.8189 17.1029 81.998 17.4541C82.1836 17.8139 82.4431 18.091 82.7764 18.2842C83.1097 18.4736 83.5003 18.5684 83.9473 18.5684C84.2464 18.5683 84.5174 18.5267 84.7598 18.4434C85.0021 18.3562 85.2126 18.2291 85.3906 18.0625C85.5685 17.8959 85.7031 17.6895 85.7939 17.4434L87.7139 17.6592C87.5926 18.1667 87.3614 18.6095 87.0205 18.9883C86.6834 19.3632 86.252 19.655 85.7256 19.8633C85.1991 20.0678 84.5969 20.1709 83.9189 20.1709C83.0439 20.1709 82.2877 19.9886 81.6514 19.625C81.0189 19.2576 80.5323 18.7387 80.1914 18.0684C79.8505 17.3941 79.6797 16.6004 79.6797 15.6875C79.6797 14.7899 79.8506 14.0022 80.1914 13.3242C80.5361 12.6424 81.0174 12.1122 81.6348 11.7334C82.2521 11.3508 82.9773 11.1592 83.8105 11.1592ZM83.8389 12.7617C83.4186 12.7618 83.0495 12.8639 82.7314 13.0684C82.4134 13.269 82.1653 13.5339 81.9873 13.8633C81.8318 14.1539 81.7444 14.4706 81.7246 14.8125H85.8281C85.8243 14.4187 85.7388 14.0684 85.5723 13.7617C85.4056 13.4511 85.1723 13.2064 84.873 13.0283C84.5776 12.8504 84.2327 12.7617 83.8389 12.7617Z" fill="#242424"/>
<path d="M63.9775 16.5117C63.9776 17.0643 64.1289 17.5035 64.4316 17.8291C64.7346 18.1548 65.1327 18.3183 65.625 18.3184C65.928 18.3184 66.2218 18.2444 66.5059 18.0967C66.79 17.949 67.0233 17.7292 67.2051 17.4375C67.3906 17.1421 67.4834 16.7722 67.4834 16.3291V11.2725H69.54V20H67.5459V18.4492H67.4551C67.2581 18.9377 66.9339 19.3369 66.4834 19.6475C66.0365 19.958 65.4852 20.1132 64.8301 20.1133C64.2581 20.1133 63.7519 19.9872 63.3125 19.7334C62.8769 19.4758 62.5363 19.1019 62.29 18.6133C62.0439 18.1209 61.9209 17.526 61.9209 16.8291V11.2725H63.9775V16.5117Z" fill="#242424"/>
<path d="M92.9785 11.1475C93.0919 11.1475 93.2186 11.1537 93.3584 11.165C93.5023 11.1726 93.6221 11.1852 93.7168 11.2041V13.0967C93.6297 13.0664 93.4911 13.0393 93.3018 13.0166C93.1162 12.9901 92.9359 12.9775 92.7617 12.9775C92.3869 12.9776 92.0501 13.0589 91.751 13.2217C91.4555 13.3808 91.2222 13.6026 91.0518 13.8867C90.8815 14.1707 90.7959 14.4981 90.7959 14.8691V20H88.7393V11.2725H90.7334V12.7275H90.8242C90.9833 12.2238 91.2563 11.8352 91.6426 11.5625C92.0327 11.286 92.4785 11.1475 92.9785 11.1475Z" fill="#242424"/>
</svg>
