<svg width="106" height="44" viewBox="0 0 106 44" fill="none" xmlns="http://www.w3.org/2000/svg">
<path d="M0 16C0 7.16344 7.16344 0 16 0H28C36.8366 0 44 7.16344 44 16V28C44 36.8366 36.8366 44 28 44H16C7.16344 44 0 36.8366 0 28V16Z" fill="#D92626"/>
<path d="M14.47 30.5038H29.53C31.07 30.5038 32.03 28.8338 31.26 27.5038L23.73 14.4938C22.96 13.1638 21.04 13.1638 20.27 14.4938L12.74 27.5038C11.97 28.8338 12.93 30.5038 14.47 30.5038ZM22 23.5038C21.45 23.5038 21 23.0538 21 22.5038V20.5038C21 19.9538 21.45 19.5038 22 19.5038C22.55 19.5038 23 19.9538 23 20.5038V22.5038C23 23.0538 22.55 23.5038 22 23.5038ZM23 27.5038H21V25.5038H23V27.5038Z" fill="white"/>
<path d="M62.5455 14.1819C62.5455 15.4357 62.3107 16.5095 61.841 17.4035C61.3751 18.2936 60.7387 18.9754 59.9319 19.4489C59.1289 19.9224 58.2179 20.1591 57.1989 20.1591C56.18 20.1591 55.2671 19.9224 54.4603 19.4489C53.6573 18.9716 53.0209 18.2879 52.5512 17.3978C52.0853 16.5038 51.8523 15.4319 51.8523 14.1819C51.8523 12.9281 52.0853 11.8561 52.5512 10.966C53.0209 10.072 53.6573 9.3883 54.4603 8.91482C55.2671 8.44133 56.18 8.20459 57.1989 8.20459C58.2179 8.20459 59.1289 8.44133 59.9319 8.91482C60.7387 9.3883 61.3751 10.072 61.841 10.966C62.3107 11.8561 62.5455 12.9281 62.5455 14.1819ZM60.4262 14.1819C60.4262 13.2993 60.2879 12.555 60.0114 11.9489C59.7387 11.3391 59.3599 10.8788 58.8751 10.5682C58.3902 10.2538 57.8315 10.0966 57.1989 10.0966C56.5664 10.0966 56.0076 10.2538 55.5228 10.5682C55.0379 10.8788 54.6573 11.3391 54.3807 11.9489C54.108 12.555 53.9717 13.2993 53.9717 14.1819C53.9717 15.0644 54.108 15.8107 54.3807 16.4205C54.6573 17.0266 55.0379 17.4868 55.5228 17.8012C56.0076 18.1118 56.5664 18.2671 57.1989 18.2671C57.8315 18.2671 58.3902 18.1118 58.8751 17.8012C59.3599 17.4868 59.7387 17.0266 60.0114 16.4205C60.2879 15.8107 60.4262 15.0644 60.4262 14.1819Z" fill="#242424"/>
<path d="M63.3302 12.9603V11.2728H70.9666V12.9603H68.1427V20H66.1541V12.9603H63.3302Z" fill="#242424"/>
<path d="M78.8948 11.2728V20H76.9175V11.2728H78.8948ZM77.9686 15.216V16.8978C77.7452 16.9963 77.4914 17.0853 77.2073 17.1648C76.927 17.2406 76.6296 17.3012 76.3152 17.3466C76.0046 17.3921 75.694 17.4148 75.3834 17.4148C74.2168 17.4148 73.2944 17.1535 72.6164 16.6307C71.9421 16.1042 71.605 15.2841 71.605 14.1705V11.2614H73.5709V14.1705C73.5709 14.5455 73.6372 14.8466 73.7698 15.0739C73.9024 15.3012 74.1031 15.4678 74.3721 15.5739C74.641 15.6762 74.9781 15.7273 75.3834 15.7273C75.838 15.7273 76.2698 15.6819 76.6789 15.591C77.088 15.5 77.5179 15.375 77.9686 15.216Z" fill="#242424"/>
<path d="M84.188 20.1705C83.313 20.1705 82.5573 19.9887 81.921 19.625C81.2884 19.2576 80.8017 18.7387 80.4607 18.0682C80.1198 17.394 79.9494 16.6004 79.9494 15.6875C79.9494 14.7898 80.1198 14.0019 80.4607 13.3239C80.8054 12.6421 81.2865 12.1118 81.9039 11.733C82.5214 11.3504 83.2467 11.1591 84.0801 11.1591C84.6179 11.1591 85.1255 11.2463 85.6028 11.4205C86.0839 11.591 86.5081 11.8561 86.8755 12.216C87.2467 12.5758 87.5384 13.0341 87.7505 13.591C87.9626 14.144 88.0687 14.8031 88.0687 15.5682V16.1989H80.9153V14.8125H86.0971C86.0933 14.4186 86.0081 14.0682 85.8414 13.7614C85.6748 13.4508 85.4418 13.2065 85.1426 13.0285C84.8471 12.8504 84.5024 12.7614 84.1085 12.7614C83.688 12.7614 83.3187 12.8637 83.0005 13.0682C82.6823 13.269 82.4342 13.5341 82.2562 13.8637C82.082 14.1894 81.9929 14.5474 81.9892 14.9375V16.1478C81.9892 16.6553 82.082 17.091 82.2676 17.4546C82.4532 17.8144 82.7126 18.091 83.046 18.2841C83.3793 18.4735 83.7695 18.5682 84.2164 18.5682C84.5157 18.5682 84.7865 18.5266 85.0289 18.4432C85.2714 18.3561 85.4816 18.2292 85.6596 18.0625C85.8376 17.8959 85.9721 17.6894 86.063 17.4432L87.9835 17.6591C87.8623 18.1667 87.6312 18.6099 87.2903 18.9887C86.9532 19.3637 86.5214 19.6553 85.9948 19.8637C85.4683 20.0682 84.8661 20.1705 84.188 20.1705Z" fill="#242424"/>
<path d="M88.4415 12.9603V11.2728H96.0779V12.9603H93.254V20H91.2654V12.9603H88.4415Z" fill="#242424"/>
<path d="M55.8637 36.1705C55.0114 36.1705 54.2728 35.983 53.6478 35.608C53.0228 35.233 52.5379 34.7084 52.1932 34.0341C51.8523 33.3599 51.6819 32.572 51.6819 31.6705C51.6819 30.769 51.8523 29.9792 52.1932 29.3012C52.5379 28.6232 53.0228 28.0966 53.6478 27.7216C54.2728 27.3466 55.0114 27.1591 55.8637 27.1591C56.716 27.1591 57.4546 27.3466 58.0796 27.7216C58.7046 28.0966 59.1876 28.6232 59.5285 29.3012C59.8732 29.9792 60.0455 30.769 60.0455 31.6705C60.0455 32.572 59.8732 33.3599 59.5285 34.0341C59.1876 34.7084 58.7046 35.233 58.0796 35.608C57.4546 35.983 56.716 36.1705 55.8637 36.1705ZM55.8751 34.5228C56.3372 34.5228 56.7236 34.3959 57.0342 34.1421C57.3448 33.8845 57.5758 33.5398 57.7273 33.108C57.8826 32.6762 57.9603 32.1951 57.9603 31.6648C57.9603 31.1307 57.8826 30.6478 57.7273 30.216C57.5758 29.7803 57.3448 29.4338 57.0342 29.1762C56.7236 28.9186 56.3372 28.7898 55.8751 28.7898C55.4016 28.7898 55.0076 28.9186 54.6932 29.1762C54.3826 29.4338 54.1497 29.7803 53.9944 30.216C53.8429 30.6478 53.7671 31.1307 53.7671 31.6648C53.7671 32.1951 53.8429 32.6762 53.9944 33.108C54.1497 33.5398 54.3826 33.8845 54.6932 34.1421C55.0076 34.3959 55.4016 34.5228 55.8751 34.5228Z" fill="#242424"/>
<path d="M71.4743 24.0455L72.1902 25.375C71.9364 25.5947 71.6524 25.7538 71.338 25.8523C71.0236 25.9508 70.6543 26.0152 70.23 26.0455C69.8096 26.072 69.3096 26.091 68.73 26.1023C68.0785 26.1175 67.5463 26.2406 67.1334 26.4716C66.7205 26.7027 66.4043 27.0531 66.1846 27.5228C65.9649 27.9887 65.8209 28.5834 65.7527 29.3069H65.8493C66.1221 28.7728 66.5046 28.3656 66.9971 28.0853C67.4895 27.805 68.0671 27.6648 68.73 27.6648C69.4535 27.6648 70.0918 27.8277 70.6448 28.1535C71.2016 28.4754 71.6353 28.9432 71.9459 29.5569C72.2603 30.1705 72.4175 30.9129 72.4175 31.7841C72.4175 32.6819 72.2489 33.4603 71.9118 34.1194C71.5747 34.7747 71.0955 35.2803 70.4743 35.6364C69.8569 35.9925 69.1239 36.1705 68.2755 36.1705C67.4308 36.1705 66.6959 35.9868 66.0709 35.6194C65.4497 35.2482 64.9686 34.7008 64.6277 33.9773C64.2906 33.25 64.1221 32.3542 64.1221 31.2898V30.5057C64.1221 28.4527 64.5046 26.9205 65.2698 25.9091C66.0349 24.8978 67.1694 24.3826 68.6732 24.3637C69.1202 24.3561 69.5198 24.3542 69.8721 24.358C70.2281 24.3618 70.5387 24.3447 70.8039 24.3069C71.069 24.269 71.2925 24.1819 71.4743 24.0455ZM68.2868 34.5228C68.7073 34.5228 69.0709 34.4148 69.3777 34.1989C69.6846 33.9792 69.9194 33.6686 70.0823 33.2671C70.2489 32.8656 70.3323 32.3902 70.3323 31.841C70.3323 31.2993 70.2489 30.8391 70.0823 30.4603C69.9156 30.0777 69.6789 29.786 69.3721 29.5853C69.0652 29.3845 68.6997 29.2841 68.2755 29.2841C67.9573 29.2841 67.6713 29.341 67.4175 29.4546C67.1637 29.5682 66.9478 29.7349 66.7698 29.9546C66.5918 30.1743 66.4554 30.4413 66.3607 30.7557C66.266 31.0701 66.2149 31.4319 66.2073 31.841C66.2073 32.6629 66.3929 33.3163 66.7641 33.8012C67.1353 34.2822 67.6429 34.5228 68.2868 34.5228Z" fill="#242424"/>
<path d="M76.0389 36.1762C75.4858 36.1762 74.9877 36.0777 74.5446 35.8807C74.1052 35.68 73.7567 35.3845 73.4991 34.9944C73.2453 34.6042 73.1184 34.1232 73.1184 33.5512C73.1184 33.0588 73.2093 32.6516 73.3911 32.3296C73.573 32.0076 73.8211 31.75 74.1355 31.5569C74.4499 31.3637 74.804 31.2178 75.198 31.1194C75.5957 31.0171 76.0067 30.9432 76.4309 30.8978C76.9423 30.8447 77.3571 30.7974 77.6752 30.7557C77.9934 30.7103 78.2245 30.6421 78.3684 30.5512C78.5161 30.4565 78.59 30.3107 78.59 30.1137V30.0796C78.59 29.6516 78.4631 29.3201 78.2093 29.0853C77.9555 28.8504 77.59 28.733 77.1127 28.733C76.6089 28.733 76.2093 28.8428 75.9139 29.0625C75.6222 29.2822 75.4252 29.5417 75.323 29.841L73.4025 29.5682C73.554 29.0379 73.804 28.5947 74.1525 28.2387C74.501 27.8788 74.9271 27.6099 75.4309 27.4319C75.9347 27.25 76.4915 27.1591 77.1014 27.1591C77.5218 27.1591 77.9404 27.2084 78.3571 27.3069C78.7737 27.4053 79.1544 27.5682 79.4991 27.7955C79.8438 28.019 80.1203 28.3239 80.3286 28.7103C80.5408 29.0966 80.6468 29.5796 80.6468 30.1591V36H78.6696V34.8012H78.6014C78.4764 35.0436 78.3002 35.2709 78.073 35.483C77.8495 35.6913 77.5673 35.8599 77.2264 35.9887C76.8893 36.1137 76.4934 36.1762 76.0389 36.1762ZM76.573 34.6648C76.9858 34.6648 77.3438 34.5834 77.6468 34.4205C77.9499 34.2538 78.1828 34.0341 78.3457 33.7614C78.5124 33.4887 78.5957 33.1913 78.5957 32.8694V31.841C78.5313 31.894 78.4214 31.9432 78.2661 31.9887C78.1146 32.0341 77.9442 32.0739 77.7548 32.108C77.5654 32.1421 77.3779 32.1724 77.1923 32.1989C77.0067 32.2254 76.8457 32.2482 76.7093 32.2671C76.4025 32.3088 76.1279 32.3769 75.8855 32.4716C75.643 32.5663 75.4518 32.6989 75.3116 32.8694C75.1715 33.036 75.1014 33.2519 75.1014 33.5171C75.1014 33.8959 75.2396 34.1819 75.5161 34.375C75.7927 34.5682 76.1449 34.6648 76.573 34.6648Z" fill="#242424"/>
<path d="M87.8477 27.2728V28.9603H84.0864V36H82.075V27.2728H87.8477Z" fill="#242424"/>
<path d="M92.3611 36.1705C91.4861 36.1705 90.7305 35.9887 90.0941 35.625C89.4615 35.2576 88.9748 34.7387 88.6339 34.0682C88.293 33.394 88.1225 32.6004 88.1225 31.6875C88.1225 30.7898 88.293 30.0019 88.6339 29.3239C88.9786 28.6421 89.4596 28.1118 90.0771 27.733C90.6945 27.3504 91.4199 27.1591 92.2532 27.1591C92.7911 27.1591 93.2986 27.2463 93.7759 27.4205C94.257 27.591 94.6812 27.8561 95.0486 28.216C95.4199 28.5758 95.7115 29.0341 95.9236 29.591C96.1358 30.144 96.2418 30.8031 96.2418 31.5682V32.1989H89.0884V30.8125H94.2702C94.2664 30.4186 94.1812 30.0682 94.0146 29.7614C93.8479 29.4508 93.6149 29.2065 93.3157 29.0285C93.0202 28.8504 92.6755 28.7614 92.2816 28.7614C91.8611 28.7614 91.4918 28.8637 91.1736 29.0682C90.8555 29.269 90.6074 29.5341 90.4293 29.8637C90.2551 30.1894 90.1661 30.5474 90.1623 30.9375V32.1478C90.1623 32.6553 90.2551 33.091 90.4407 33.4546C90.6263 33.8144 90.8858 34.091 91.2191 34.2841C91.5524 34.4735 91.9426 34.5682 92.3896 34.5682C92.6888 34.5682 92.9596 34.5266 93.2021 34.4432C93.4445 34.3561 93.6547 34.2292 93.8327 34.0625C94.0108 33.8959 94.1452 33.6894 94.2361 33.4432L96.1566 33.6591C96.0354 34.1667 95.8043 34.6099 95.4634 34.9887C95.1263 35.3637 94.6945 35.6553 94.168 35.8637C93.6414 36.0682 93.0392 36.1705 92.3611 36.1705Z" fill="#242424"/>
</svg>
