<svg width="106" height="44" viewBox="0 0 106 44" fill="none" xmlns="http://www.w3.org/2000/svg">
<path fill-rule="evenodd" clip-rule="evenodd" d="M22 0C34.1503 0 44 9.84974 44 22C44 34.1503 34.1503 44 22 44C9.84974 44 0 34.1503 0 22C0 9.84974 9.84974 0 22 0ZM35.0664 21.8506C33.2619 20.8088 30.3212 22.5238 28.498 25.6816C26.675 28.8393 26.6596 32.2442 28.4639 33.2861C30.2683 34.3279 33.2091 32.6119 35.0322 29.4541C36.8554 26.2963 36.8708 22.8924 35.0664 21.8506ZM30.6553 19.3037C28.8508 18.2623 25.91 19.9771 24.0869 23.1348C22.2638 26.2926 22.2492 29.6975 24.0537 30.7393L26.3223 32.0488C26.3774 32.0806 26.4476 32.0618 26.4795 32.0068C26.5032 31.9658 26.4991 31.9149 26.4707 31.877C24.0458 28.6412 28.837 20.3498 32.8496 20.8291C32.8966 20.8346 32.9431 20.8125 32.9668 20.7715C32.9987 20.7163 32.9799 20.6453 32.9248 20.6133L30.6553 19.3037ZM20.167 13.248C18.3626 12.2063 15.4218 13.9214 13.5986 17.0791C11.7755 20.2369 11.76 23.6418 13.5645 24.6836C14.8898 25.4486 16.8281 24.7258 18.4863 23.0371C18.6539 22.8665 18.6092 22.5866 18.4023 22.4668L17.041 21.6807C16.1388 21.1598 15.8297 20.0057 16.3506 19.1035L17.1045 17.7969C17.417 17.2556 18.1091 17.0703 18.6504 17.3828L20.666 18.5459C20.8731 18.6651 21.1379 18.5641 21.2021 18.334C21.8355 16.0536 21.4921 14.0135 20.167 13.248ZM18.3789 18.0645C18.0181 17.8563 17.5571 17.9802 17.3486 18.3408L16.7822 19.3213C16.3656 20.0431 16.6132 20.9661 17.335 21.3828L22.3174 24.2598C22.6781 24.4678 23.1393 24.3439 23.3477 23.9834L23.9141 23.0029C24.3307 22.2812 24.0831 21.3581 23.3613 20.9414L18.3789 18.0645ZM15.7559 10.7012C13.9514 9.65939 11.0107 11.3746 9.1875 14.5322C7.36437 17.69 7.34897 21.0948 9.15332 22.1367L11.4229 23.4463C11.478 23.4779 11.5483 23.4594 11.5801 23.4043C11.6037 23.3634 11.5995 23.3123 11.5713 23.2744C9.14643 20.0387 13.9367 11.7477 17.9492 12.2266C17.9962 12.2322 18.0426 12.2099 18.0664 12.1689C18.0983 12.1137 18.0797 12.0427 18.0244 12.0107L15.7559 10.7012Z" fill="#0D85FD"/>
</svg>
